<svg width="16" height="16" viewBox="0 0 16 16" fill="none" xmlns="http://www.w3.org/2000/svg">
<path d="M14.4791 6.10699L14.4807 6.12457L14.4836 6.14198C14.4896 6.17777 14.5556 6.61152 14.372 7.35845L14.372 7.3586C14.1081 8.434 13.4968 9.42084 12.5922 10.2096L7.9609 14.1819L3.4094 10.2108L3.40911 10.2105C2.50385 9.4219 1.89201 8.43435 1.62795 7.35858L1.62793 7.35848C1.44429 6.61094 1.51053 6.17756 1.51636 6.14307L1.51942 6.12496L1.52115 6.10667C1.70442 4.16467 3.11257 2.82812 4.81195 2.82812C5.93895 2.82812 6.94471 3.40594 7.53408 4.37556L7.95666 5.0708L8.38604 4.37974C8.97901 3.42536 10.0341 2.82838 11.188 2.82838C12.8876 2.82838 14.2956 4.16491 14.4791 6.10699Z" stroke="black"/>
</svg>
