<svg width="211" height="24" viewBox="0 0 211 24" fill="none" xmlns="http://www.w3.org/2000/svg">
<path d="M46.4289 4.77348H39V0.397789H59.2305V4.77348H51.8016V23.6022H46.4289V4.77348Z" fill="black"/>
<path d="M73.0402 24C70.6303 24 68.4525 23.4807 66.5068 22.442C64.5832 21.4033 63.0687 19.9779 61.9632 18.1657C60.8798 16.3315 60.3382 14.2762 60.3382 12C60.3382 9.72376 60.8798 7.67956 61.9632 5.8674C63.0687 4.03315 64.5832 2.59668 66.5068 1.55801C68.4525 0.519337 70.6303 0 73.0402 0C75.4502 0 77.617 0.519337 79.5405 1.55801C81.4641 2.59668 82.9786 4.03315 84.0841 5.8674C85.1896 7.67956 85.7424 9.72376 85.7424 12C85.7424 14.2762 85.1896 16.3315 84.0841 18.1657C82.9786 19.9779 81.4641 21.4033 79.5405 22.442C77.617 23.4807 75.4502 24 73.0402 24ZM73.0402 19.4254C74.4111 19.4254 75.6492 19.116 76.7547 18.4972C77.8602 17.8564 78.7225 16.9724 79.3416 15.8453C79.9827 14.7182 80.3033 13.4365 80.3033 12C80.3033 10.5635 79.9827 9.28177 79.3416 8.1547C78.7225 7.02762 77.8602 6.1547 76.7547 5.53591C75.6492 4.89503 74.4111 4.57459 73.0402 4.57459C71.6694 4.57459 70.4313 4.89503 69.3258 5.53591C68.2203 6.1547 67.347 7.02762 66.7058 8.1547C66.0867 9.28177 65.7772 10.5635 65.7772 12C65.7772 13.4365 66.0867 14.7182 66.7058 15.8453C67.347 16.9724 68.2203 17.8564 69.3258 18.4972C70.4313 19.116 71.6694 19.4254 73.0402 19.4254Z" fill="black"/>
<path d="M110.906 23.6022L110.873 9.67956L104.041 21.1492H101.62L94.8212 9.9779V23.6022H89.7802V0.397789H94.2242L102.913 14.8177L111.47 0.397789H115.881L115.947 23.6022H110.906Z" fill="black"/>
<path d="M132.698 24C130.288 24 128.11 23.4807 126.164 22.442C124.241 21.4033 122.726 19.9779 121.621 18.1657C120.538 16.3315 119.996 14.2762 119.996 12C119.996 9.72376 120.538 7.67956 121.621 5.8674C122.726 4.03315 124.241 2.59668 126.164 1.55801C128.11 0.519337 130.288 0 132.698 0C135.108 0 137.275 0.519337 139.198 1.55801C141.122 2.59668 142.636 4.03315 143.742 5.8674C144.847 7.67956 145.4 9.72376 145.4 12C145.4 14.2762 144.847 16.3315 143.742 18.1657C142.636 19.9779 141.122 21.4033 139.198 22.442C137.275 23.4807 135.108 24 132.698 24ZM132.698 19.4254C134.069 19.4254 135.307 19.116 136.412 18.4972C137.518 17.8564 138.38 16.9724 138.999 15.8453C139.64 14.7182 139.961 13.4365 139.961 12C139.961 10.5635 139.64 9.28177 138.999 8.1547C138.38 7.02762 137.518 6.1547 136.412 5.53591C135.307 4.89503 134.069 4.57459 132.698 4.57459C131.327 4.57459 130.089 4.89503 128.983 5.53591C127.878 6.1547 127.005 7.02762 126.363 8.1547C125.744 9.28177 125.435 10.5635 125.435 12C125.435 13.4365 125.744 14.7182 126.363 15.8453C127.005 16.9724 127.878 17.8564 128.983 18.4972C130.089 19.116 131.327 19.4254 132.698 19.4254Z" fill="black"/>
<path d="M164.229 23.6022L159.752 17.1381H154.811V23.6022H149.438V0.397789H159.487C161.543 0.397789 163.323 0.740331 164.826 1.42541C166.352 2.1105 167.524 3.08287 168.342 4.34254C169.16 5.60221 169.569 7.09392 169.569 8.81768C169.569 10.5414 169.149 12.0331 168.309 13.2928C167.491 14.5304 166.319 15.4807 164.793 16.1436L170 23.6022H164.229ZM164.13 8.81768C164.13 7.51381 163.71 6.51934 162.87 5.83425C162.029 5.12707 160.802 4.77348 159.188 4.77348H154.811V12.8619H159.188C160.802 12.8619 162.029 12.5083 162.87 11.8011C163.71 11.0939 164.13 10.0994 164.13 8.81768Z" fill="black"/>
</svg>
